<?xml version="1.0" encoding="utf-8"?>
<!-- Generator: Adobe Illustrator 19.0.0, SVG Export Plug-In . SVG Version: 6.00 Build 0)  -->
<svg version="1.1" id="Layer_1" xmlns="http://www.w3.org/2000/svg" xmlns:xlink="http://www.w3.org/1999/xlink" x="0px" y="0px"
	 viewBox="0 0 1299 803.3" style="enable-background:new 0 0 1299 803.3;" xml:space="preserve">
<style type="text/css">
	.st0{fill:#FF0000;}
	.st1{fill:#EAE406;}
	.st2{fill:#007719;}
	.st3{fill:#FFFF00;}
	.st4{fill:none;stroke:#EAE406;stroke-width:5;stroke-miterlimit:10;}
</style>
<g>
	<g>
		<path class="st0" d="M262.2,422.8l5.7,5.2c2.7,2.7,4,4.7,4,5.9v21.2l-33.1,24.9c-0.4,0-2.5-0.7-6.3-2.2c-4-1.5-6.5-2.4-7.6-2.9
			c-18.1-8.9-29.6-21-34.3-36.4c-1.6-5.1-2.4-9.9-2.4-14.5c0-1.2,0.1-2.3,0.2-3.4c0.5-5.6,2.4-11.4,5.5-17.4
			c2.8-5.3,7.4-11,13.9-17.1c2.3-2.1,6.7-5.4,13.1-9.8c6.5-4.4,11.2-6.8,14.2-7.1c0.4-0.1,0.9-0.1,1.3-0.1c2.8,0,5.7,0.7,8.8,2.2
			c1.4,0.6,4.7,2.5,9.8,5.5c3.6,2.2,6.6,3.3,8.8,3.3c1,0,1.8-0.2,2.5-0.6l-0.4,5.5c-1.1,6.7-3.9,10.1-8.5,10.1c-1.5,0-3.1-0.3-4.9-1
			c-1.2-0.5-3.7-1.9-7.5-4.3c-3.8-2.4-6.7-3.9-8.8-4.4c-2.3-0.6-4.6-0.9-7.1-0.9c-3.8,0-7.6,0.8-11.7,2.3c-3.2,1.2-6.1,3.1-8.6,5.9
			c-2.4,2.7-4,5.9-5,9.3c-1,3.7-1.4,7.3-1.4,10.7c0,2.4,0.2,4.8,0.7,7.1c1.1,5.1,3.4,10.6,7.1,16.6c7.8,12.5,20.4,22,37.9,28.6
			l9.5-7.1v-12c0-1.2-1-2.8-2.9-4.7c-1.9-1.9-4.5-4.3-7.7-7.1L262.2,422.8z"/>
		<path class="st0" d="M354.9,442.5c5.7,4.5,10.3,11.8,13.9,22.1c2.5,7.5,5.7,11.3,9.7,11.3c1.5,0,3-0.5,4.7-1.6
			c-0.2,7.2-2.6,11.4-7.1,12.8c-1.8,0.6-3.5,0.8-5.2,0.8c-2.5,0-4.9-0.6-7.1-1.8c-3.8-2-7.9-7.8-12.1-17.3
			c-4.3-9.5-11.5-16.6-21.5-21c-0.3,5.2-1.4,9.6-3.3,13.3c-2.6,5.3-4.8,8.9-6.6,10.8c-3,3.2-7,5.2-12,6c1.3-0.4,2.6-1.6,3.9-3.4
			c1.9-2.9,2.9-6.8,2.9-11.8c0-1.2-0.1-2.5-0.2-3.9l-1.3-13.4H311c-6.7,0-13.5,0.8-20.7,2.4c5.3-5.5,12.7-9.6,22.2-12.3l-1.3-13.5
			c-0.2-1.4-0.3-3-0.3-4.8c0-3.6,0.4-8,1.2-13.2c1.1-7.7,5.3-14.2,12.6-19.6l-10.5-1.4c-3.5-0.7-7.4-2.2-11.6-4.5
			c-3.8-2.1-7-4.6-9.8-7.5l-8.3-12.5c0.3,0.8,3,2.7,7.9,5.6c5,3,19.6,4.9,43.8,5.8c5.8,0.7,10.6,1.8,14.6,3.1
			c8,2.6,14.2,6.8,18.8,12.5c4.8,5.9,7.3,12.9,7.4,21v0.7c0,7.9-2,14.6-6.1,20.2C368.5,430.7,363.2,435.8,354.9,442.5z M349.9,439.3
			c5-4.4,8.4-9.4,10-15c1-3.2,1.4-6.4,1.4-9.6c0-2.2-0.2-4.5-0.7-6.7c-1.2-5.7-3.6-10.4-7.2-14.2c-4-4.1-9.1-6.7-15.1-7.6l-6.6-0.9
			c-2,3.8-3,11.7-3,23.7c0,5.8,0.2,12.5,0.7,20.2l0.3,4.4C336.8,433.7,343.5,435.7,349.9,439.3z"/>
		<path class="st0" d="M512,471.8c6.1,8.6,13,14,20.7,16.1c-0.3,0-4.2,1.5-11.7,4.6c-2.1,0.8-4.1,1.3-6,1.3c-5.5,0-11-3.2-16.3-9.6
			c-4.6-7.2-9.7-22.7-15.2-46.4c-3,2.1-6.4,3.2-10,3.2c-2.7,0-5.6-0.6-8.6-1.8c-4.2-1.6-7.7-2.4-10.6-2.4c-2.2,0-4,0.4-5.5,1.3
			l-12.2,25.4c3.8,1.1,7.7,2.9,11.6,5.5l-13.7,10.2c-3.9-2.1-8-3.5-12.3-4c-1.5-0.2-2.9-0.3-4.4-0.3c-4.6,0-9.2,0.9-13.8,2.8
			c1.2-2.2,3-4.5,5.4-6.9c2.1-2.1,4.3-3.8,6.7-5c3-1.7,6-2.7,9.2-3.1l37.4-83.3c-3.1-2-6.5-3-10.3-3c-1.8,0-3.7,0.2-5.6,0.7
			c-4.5,1.1-9.6,3.4-15.3,6.9l0.2-0.3c0.2-0.2,0.4-0.5,0.8-0.8c0.8-1,1.8-2,3-3.2c3.6-3.4,7.3-6.4,11-8.9c5.2-3.5,10-5.8,14.5-6.7
			c1.7-0.4,3.3-0.6,4.8-0.6c3.6,0,6.9,1,9.7,3.1c5.2,3.7,9.3,9.9,12.4,18.6c1.1,3,4.3,16.8,9.8,41.4
			C503.3,451,508.1,466.1,512,471.8z M480.6,425.5c0.3-0.7,0.6-1.4,0.7-2.2c0.1-0.2,0.1-0.4,0.1-0.7v-0.4l-0.3-0.8
			c-1.5-10.3-5.1-21.3-10.7-32.9l-15.8,36.3c1.3,0.3,4.6,1.2,9.7,2.8c4.2,1.3,7.5,1.9,9.8,1.9c0.5,0,1,0,1.4-0.1
			C478,428.9,479.7,427.6,480.6,425.5z"/>
		<path class="st0" d="M614.1,468.6c1,1.2,2,2,3,2.6l-12.5,9.2l-0.2-0.1l-0.3-0.2l-0.3-0.2l-0.3,0.1h-0.2c-4.5-0.7-8.8-3.1-12.7-7.4
			c-2.5-2.8-5.4-7-8.6-12.5c-5.4-9.7-13.8-26.8-25-51.2v50.6c0,4.8,2,8.4,6,10.8l-12.4,9.2l-0.1-0.1h-0.1c-5.9-4.4-8.8-9.9-8.8-16.5
			l0.1-71.3c0-4.3-0.9-7.5-2.6-9.7c-1.7-2.3-4.2-3.4-7.3-3.4c-2.6,0-5,1.1-7.2,3.4v-0.2c0-2.1,0.6-4.2,1.8-6.3
			c1.1-1.9,2.5-3.4,4.4-4.5c2.3-1.3,5.2-2,8.6-2c10.5,0.2,17,4.4,19.6,12.5l36.6,75v-68c0-3.1-1-5.8-3-8.2c-1-1.2-2-2-3-2.5
			l12.4-9.3l0.1,0.1l0.2,0.1l0.2,0.1l0.4,0.2l0.5,0.3l1.5,1c0.4,0.4,1,0.9,1.6,1.4c1.4,1.3,2.4,2.7,3.1,4.1c1,1.8,1.4,3.8,1.4,6
			l-0.1,78.7C611,463.5,612,466.3,614.1,468.6z"/>
		<path class="st0" d="M718.3,408.2c0.7,5,1.1,9.7,1.1,14.2c0,11.2-2.2,20.9-6.6,29.1c-1.7,3.2-4.2,6.5-7.4,9.7c-2,2-5,4.6-9.1,8.1
			c-0.1,0.1-0.8,0.8-2.2,1.9c-0.7,0.6-1.3,1.2-1.8,1.7l-2.1,1.8c-3.5,3.1-5.5,4.6-5.8,4.6h-0.1c-3.1-2.2-7.6-4-13.5-5.5
			c-5.8-1.5-11.8-2.2-18.1-2.2c-6.6,0-13.5,0.8-20.7,2.4c5.8-6.1,13.9-10.4,24.4-12.8c0.4-1.7,0.7-3.7,0.7-5.8
			c0-1.1-0.1-2.3-0.2-3.5l-3.8-34c-0.2-1.5-0.3-3.1-0.3-4.8c0-2.5,0.2-5.1,0.8-8c0.7-4.1,2-7.9,3.9-11.2c2.2-4.1,5.3-7.5,9.2-10.1
			c-5.4-0.4-12.2-2.2-20.6-5.5c-8.4-3.3-14.9-10.1-19.7-20.4c0.3,0.8,2.7,2.3,7.1,4.5c4.4,2.2,9.7,3.7,15.9,4.5
			c2.4,0.3,9.4,0.7,21.1,1.1c11.7,0.4,21,2.7,27.8,6.8c4.9,3,9.1,6.9,12.6,11.8C714.6,391.9,717.1,399.1,718.3,408.2z M702.1,450.6
			c0.6-3.1,0.8-6.6,0.8-10.6c0-6.3-0.7-13.8-2.2-22.3l-0.5-3.4l-0.6-3.4c-0.5-2.7-1-5-1.6-7c-1.5-5.2-3.6-9.3-6.3-12.3
			c-1.5-1.5-3.2-2.9-5.4-4c-2.3-1.2-4.4-1.9-6.3-2l-5.1-0.7c-2.4,4.4-3.6,10.3-3.6,17.7c0,1.3,0,2.7,0.1,4.1l0.8,8.8l0.8,8.8
			l0.3,3.8l0.3,3.8c0.2,2.4,0.3,4.6,0.3,6.5v1.1c-0.2,5.7-1.4,10.5-3.7,14.4c-1.6,2.7-2.8,4.6-3.6,5.8c0.9-0.1,1.8-0.1,2.7-0.1
			c7.7,0,15.6,1.5,23.7,4.6C698.2,459.7,701.3,455.1,702.1,450.6z"/>
		<path class="st0" d="M800.9,459h-0.2c-20.7,15.8-31.2,23.7-31.4,23.6c-5.1-3.1-9.4-6.8-13-11.3c-5.3-6.5-8.5-14.9-9.7-25.2
			c-0.2-1.6-0.2-3.2-0.2-4.9c0-10.4,3.6-21,10.7-31.8l1.3-1.9l1.5-2c1.3-1.7,2.3-3.1,2.9-4.2c1.8-3,2.8-5.8,2.8-8.3v-0.8
			c-0.1-1.7-1-3.3-2.7-4.6c-1.6-1.2-3.2-1.9-4.8-1.9h-0.3c-2.4,0.1-4.2,0.9-5.5,2.5c-0.9,1.1-1.3,2.4-1.3,3.7c0,0.8,0.2,1.7,0.5,2.7
			h-0.1l-0.1-0.1c-0.1-0.1-0.1-0.2-0.2-0.3c-0.3-0.3-0.7-0.7-1-1.2c-0.4-0.6-0.8-1.1-1.2-1.7c-0.4-0.7-0.8-1.4-1-2.1
			c-0.6-1.8-0.8-3.5-0.8-5.1c0-2.2,0.5-4.2,1.6-6c1.8-3.1,5.1-5,9.7-5.9c1-0.2,1.9-0.2,2.8-0.2c2.2,0,4.2,0.5,6,1.6
			c3.2,1.9,8.1,5.4,14.5,10.6l-3.8,4.8c-2.6,3.2-5.2,7.9-8,13.9c-3.3,7.2-5.3,13.4-5.9,18.8c-0.3,2.5-0.4,5-0.4,7.3
			c0,5.9,0.9,11.5,2.8,16.8c2.9,8.3,8,15.3,15.2,20.7l19.2-14.3v-63.7c0-3.2-1-5.9-3-8.2c-1-1.2-2-2-3-2.6l12.4-9.2h0.2l0.1,0.1
			l0.2,0.1l0.4,0.2l0.6,0.3c0.4,0.3,0.9,0.6,1.4,1c0.6,0.5,1.1,0.9,1.6,1.3c1.3,1.3,2.4,2.7,3.1,4.2c1,1.8,1.4,3.8,1.4,6l0.1,77
			c0,4.8,2,8.4,6,10.8l-12.4,9.2l-0.1-0.1h-0.1c-5.8-4.4-8.7-9.9-8.7-16.5V459z"/>
		<path class="st0" d="M911.7,376.8L911.7,376.8l0.2,0.1c0.1,0.1,0.2,0.2,0.3,0.3c0.4,0.2,0.8,0.5,1.3,0.8c1.3,0.8,2.6,1.4,3.8,1.9
			c1.8,0.8,3.2,1.2,4.4,1.2c1.1,0,1.8-0.4,2.1-1.3v0.7c0,1.4-0.1,3-0.4,4.9c-1.1,6.8-3.9,10.2-8.5,10.2c-1.5,0-3.1-0.3-4.9-1
			c-1.2-0.5-2.6-1.2-4.1-2.1l-2-1.3l-1.9-1.3c-3.4-2.2-6.1-3.6-8.2-4.2c-2.3-0.6-4.7-0.9-7.1-0.9c-3.8,0-7.6,0.8-11.7,2.3
			c-3.2,1.2-6.1,3.2-8.6,6c-2.4,2.7-4,5.9-5,9.4c-1,3.7-1.4,7.3-1.4,10.8c0,2.4,0.2,4.8,0.7,7.1c1.1,5.2,3.4,10.7,7.1,16.7
			c7.8,12.6,20.4,22.2,37.9,28.8l12.3-9.2l3.6,5L896,480.9c-0.4,0-2.5-0.7-6.3-2.2c-4-1.5-6.5-2.4-7.6-2.9
			c-18.1-9-29.6-21.2-34.3-36.6c-1.6-5.2-2.4-10-2.4-14.7c0-1.2,0.1-2.3,0.2-3.4c0.5-5.6,2.4-11.4,5.5-17.5
			c2.8-5.4,7.4-11.1,13.9-17.3c2.3-2.1,5.2-4.5,8.7-7.2l2.1-1.5l2.2-1.7c1.7-1.2,3.2-2.2,4.5-2.9c3.6-2.1,6.9-3.3,9.9-3.6
			c0.4-0.1,0.9-0.1,1.3-0.1c2.8,0,5.7,0.7,8.8,2.2c1.4,0.6,3,1.5,4.7,2.5l2.3,1.4L911.7,376.8z"/>
		<path class="st0" d="M1046.8,471.8c6.1,8.6,13,14,20.7,16.1c-0.3,0-4.2,1.5-11.7,4.6c-2.1,0.8-4.1,1.3-6,1.3
			c-5.5,0-11-3.2-16.3-9.6c-4.6-7.2-9.7-22.7-15.2-46.4c-3,2.1-6.4,3.2-10,3.2c-2.7,0-5.6-0.6-8.6-1.8c-4.2-1.6-7.7-2.4-10.6-2.4
			c-2.2,0-4,0.4-5.5,1.3l-12.2,25.4c3.8,1.1,7.7,2.9,11.6,5.5l-13.7,10.2c-3.9-2.1-8-3.5-12.3-4c-1.5-0.2-2.9-0.3-4.4-0.3
			c-4.6,0-9.2,0.9-13.8,2.8c1.2-2.2,3-4.5,5.4-6.9c2.1-2.1,4.3-3.8,6.7-5c3-1.7,6-2.7,9.2-3.1l37.4-83.3c-3.1-2-6.5-3-10.3-3
			c-1.8,0-3.7,0.2-5.6,0.7c-4.5,1.1-9.6,3.4-15.3,6.9l0.2-0.3c0.2-0.2,0.4-0.5,0.8-0.8c0.8-1,1.8-2,3-3.2c3.6-3.4,7.2-6.4,11-8.9
			c5.2-3.5,10.1-5.8,14.5-6.7c1.7-0.4,3.3-0.6,4.8-0.6c3.6,0,6.9,1,9.7,3.1c5.2,3.7,9.3,9.9,12.4,18.6c1.1,3,4.3,16.8,9.8,41.4
			C1038.1,451,1042.8,466.1,1046.8,471.8z M1015.4,425.5c0.3-0.7,0.6-1.4,0.7-2.2c0.1-0.2,0.1-0.4,0.1-0.7v-0.4l-0.3-0.8
			c-1.5-10.3-5.1-21.3-10.7-32.9l-15.8,36.3c1.3,0.3,4.6,1.2,9.7,2.8c4.2,1.3,7.5,1.9,9.8,1.9c0.5,0,1,0,1.4-0.1
			C1012.8,428.9,1014.5,427.6,1015.4,425.5z"/>
	</g>
	<g>
		<g>
			<g>
				<g>
					<path class="st1" d="M259.7,306.9c-0.9,0.4-1.8,0.7-2.8,0.8c-1,0.1-2.2-0.1-3.1-0.9c-0.9-0.8-1.5-1.9-1.7-3
						c-0.2-0.6-0.2-1.1-0.2-1.6c0-0.5,0-1.1,0-1.6c0.1-2.1,0.6-4.1,1.4-6c0.8-1.9,1.8-3.8,3.2-5.4c0.7-0.8,1.5-1.6,2.3-2.3
						c0.8-0.7,1.7-1.3,2.7-1.8c1-0.5,2-1,3-1.3c1-0.3,2.1-0.6,3.1-0.8c0.5-0.1,1.1-0.1,1.6-0.2c0.5-0.1,1.1-0.1,1.6-0.1
						c1.1,0,2.1,0,3.1,0.1c1,0.1,2,0.3,3,0.5c1,0.2,2,0.5,3,0.7l0.2,0.1l0.2,0.1c0.6,0.3,0.9,0.6,1.4,0.9c0.4,0.3,0.8,0.6,1.1,0.9
						c0.4,0.3,0.7,0.7,1.1,1c0.3,0.4,0.7,0.7,1,1.1c0.3,0.4,0.6,0.8,0.9,1.2l0.7,1.3l0.6,1.3c0.2,0.5,0.3,0.9,0.5,1.4
						c0.2,0.5,0.2,1,0.3,1.4c0.1,0.5,0.2,1,0.2,1.4l0.1,1.4l-0.1,1.4L288,300l-0.1,0.7l-0.3,1.4c-0.1,0.5-0.3,0.9-0.4,1.3l-0.5,1.3
						l-0.1,0.2l-0.1,0.1c-0.2,0.3-0.4,0.4-0.5,0.7c-0.2,0.2-0.4,0.4-0.5,0.6c-0.4,0.4-0.8,0.7-1.2,1c-0.4,0.3-0.9,0.6-1.3,0.9
						l-0.7,0.4l-0.8,0.3c-0.3,0.1-0.5,0.1-0.8,0.2c-0.3,0.1-0.5,0.1-0.8,0.1c-0.3,0-0.5,0-0.8,0c-0.3,0-0.5,0-0.8-0.1
						c-0.3-0.1-0.5-0.2-0.7-0.2l-0.7-0.4c-0.4-0.2-0.8-0.6-1.1-0.9l0.7,0.3c0.2,0.1,0.4,0.2,0.7,0.2l0.7,0.2l0.7,0
						c0.2,0,0.4,0,0.6-0.1c0.2,0,0.4-0.1,0.6-0.1c0.2-0.1,0.4-0.1,0.6-0.2c0.2-0.1,0.4-0.2,0.6-0.3l0.5-0.4l0.5-0.4
						c0.2-0.1,0.3-0.3,0.5-0.5c0.2-0.1,0.3-0.3,0.4-0.5c0.3-0.3,0.5-0.7,0.8-1c0.1-0.2,0.2-0.4,0.4-0.5c0.1-0.2,0.2-0.4,0.3-0.5
						l-0.1,0.3l0.2-1.2c0.1-0.4,0.2-0.8,0.2-1.2l0.1-1.2l0-0.6l0-0.6l-0.1-1.1c-0.1-0.4-0.1-0.7-0.2-1.1c0-0.4-0.2-0.7-0.3-1.1
						c-0.1-0.3-0.2-0.7-0.3-1c-0.2-0.3-0.3-0.7-0.4-1l-0.5-0.9l-0.6-0.9l-0.7-0.8c-0.2-0.3-0.5-0.5-0.7-0.8
						c-0.3-0.2-0.5-0.5-0.8-0.7c-0.3-0.2-0.6-0.4-0.9-0.6c-0.3-0.2-0.6-0.4-0.8-0.5l0.5,0.2c-0.9-0.2-1.7-0.4-2.6-0.6
						c-0.9-0.2-1.7-0.3-2.6-0.4c-0.9-0.1-1.7-0.2-2.6-0.1c-0.4,0-0.8,0-1.3,0c-0.4,0-0.8,0-1.2,0.1c-0.8,0.1-1.6,0.3-2.4,0.5
						c-0.4,0.1-0.8,0.2-1.2,0.4c-0.4,0.1-0.8,0.3-1.1,0.5c-0.7,0.3-1.4,0.8-2.1,1.2c-0.7,0.5-1.3,1-1.9,1.6
						c-0.6,0.6-1.2,1.2-1.7,1.9c-0.5,0.7-1,1.4-1.4,2.2c-0.4,0.8-0.8,1.6-1.2,2.4c-0.3,0.8-0.6,1.6-0.8,2.5
						c-0.1,0.4-0.2,0.9-0.2,1.3c-0.1,0.4-0.1,0.8-0.1,1.2c0,0.8,0.2,1.5,0.6,2.1c0.4,0.6,1.2,1,2.1,1.2
						C257.8,307,258.8,307,259.7,306.9z"/>
				</g>
				<g>
					<path class="st1" d="M284.3,308.5c0.8,0,1.6,0.1,2.3,0.4c0.4,0.2,0.8,0.3,1.1,0.5c0.4,0.2,0.7,0.4,1.1,0.6
						c0.4,0.2,0.7,0.5,1,0.8c0.3,0.3,0.6,0.6,0.8,1c0.3,0.3,0.5,0.7,0.7,1.1l0.3,0.6l0.2,0.6c0.1,0.4,0.3,0.8,0.4,1.2l0.2,1.3
						c0.1,0.4,0,0.8,0.1,1.3c0,0.4,0,0.9,0,1.3l-0.1,1.2c-0.1,0.4-0.1,0.8-0.2,1.2c-0.2,0.8-0.3,1.6-0.5,2.4l0,0l0,0.1
						c-0.1,0.3-0.2,0.5-0.3,0.7c-0.1,0.2-0.2,0.4-0.3,0.6c-0.2,0.4-0.4,0.7-0.7,1.1c-0.5,0.7-1,1.3-1.7,1.8c-0.3,0.3-0.6,0.6-1,0.8
						c-0.3,0.3-0.7,0.5-1,0.7c-0.4,0.2-0.7,0.4-1.1,0.6c-0.4,0.2-0.7,0.4-1.1,0.5l-1.2,0.4c-0.4,0.1-0.8,0.2-1.2,0.3
						c-0.4,0.1-0.8,0.2-1.2,0.2l-1.2,0.2c-0.4,0.1-0.8,0-1.2,0.1l-1.2,0c-0.8,0-1.5-0.1-2.3-0.2l-0.3,0l-0.5-0.2
						c-0.3-0.1-0.8-0.3-1.2-0.5c-0.4-0.2-0.8-0.3-1.3-0.5c-0.9-0.3-1.7-0.5-2.6-0.7c-0.4-0.1-0.9-0.2-1.3-0.3
						c-0.4-0.1-0.9-0.1-1.3-0.2c-0.4,0-0.9-0.1-1.3-0.1c-0.4,0-0.9-0.1-1.3,0l-1.3,0.1c-0.4,0-0.9,0.1-1.3,0.2
						c-0.4,0-0.8,0.2-1.3,0.3c-0.4,0.1-0.9,0.2-1.2,0.4l-1.2,0.5l-1.1,0.6c-0.2,0.1-0.4,0.2-0.6,0.3l-0.5,0.4
						c-0.4,0.3-0.7,0.5-1.1,0.8l-0.6,0.4l-0.2,0c-0.5,0.1-0.8,0.1-1.1,0.1c-0.3,0-0.7,0-1-0.1c-0.7-0.1-1.4-0.2-2-0.5
						c-0.3-0.1-0.6-0.3-0.9-0.4c-0.3-0.2-0.6-0.4-0.8-0.6c-0.3-0.2-0.5-0.4-0.7-0.7c-0.2-0.3-0.5-0.5-0.6-0.8l-0.5-0.8
						c-0.1-0.3-0.3-0.6-0.4-0.9c-0.3-0.6-0.3-1.2-0.5-1.8c-0.1-0.6-0.2-1.2-0.2-1.8c0-0.6,0-1.2,0-1.7c0.2,0.5,0.4,1.1,0.5,1.6
						c0.1,0.3,0.2,0.5,0.3,0.8c0.1,0.3,0.2,0.5,0.3,0.8c0.3,0.5,0.5,1,0.9,1.4l0.5,0.6l0.5,0.5c0.2,0.2,0.4,0.3,0.6,0.4
						c0.2,0.2,0.4,0.2,0.6,0.3c0.2,0.1,0.4,0.2,0.6,0.2c0.2,0.1,0.4,0.1,0.7,0.2c0.4,0.1,0.9,0.1,1.3,0.1c0.2,0,0.4,0,0.7-0.1
						c0.2,0,0.5-0.1,0.6-0.1l-0.8,0.4c0.4-0.4,0.8-0.8,1.2-1.2l0.6-0.6c0.2-0.2,0.4-0.3,0.7-0.5c0.4-0.3,0.9-0.7,1.4-1l1.5-0.8
						c0.5-0.3,1-0.5,1.6-0.7c0.5-0.2,1.1-0.4,1.6-0.5c0.5-0.1,1.1-0.3,1.6-0.4l1.7-0.2c0.6-0.1,1.1-0.1,1.7-0.1c0.6,0,1.1,0,1.7,0
						c0.6,0,1.1,0.1,1.6,0.2c0.5,0.1,1.1,0.1,1.6,0.2c1.1,0.2,2.1,0.5,3.2,0.8c0.5,0.2,1,0.3,1.5,0.5c0.5,0.2,1,0.4,1.6,0.7
						l-0.8-0.2l1.8,0.2l0.9,0c0.3,0,0.6,0,0.9,0l0.9-0.1c0.3,0,0.6-0.1,0.9-0.1c0.3-0.1,0.6-0.1,0.9-0.2l0.8-0.2
						c0.3-0.1,0.5-0.2,0.8-0.3c0.3-0.1,0.5-0.2,0.8-0.4c0.3-0.1,0.5-0.3,0.7-0.4c0.2-0.1,0.5-0.3,0.7-0.5c0.5-0.3,0.8-0.7,1.2-1.1
						c0.2-0.2,0.4-0.4,0.5-0.6c0.1-0.1,0.2-0.2,0.2-0.3c0.1-0.1,0.1-0.2,0.2-0.2l-0.1,0.1c0.2-0.7,0.5-1.3,0.7-2
						c0.1-0.3,0.2-0.7,0.3-1l0.3-1c0.1-0.3,0.1-0.7,0.2-1c0-0.3,0.1-0.7,0.1-1l0-1c0-0.3-0.1-0.7-0.1-1l0-0.5l-0.1-0.5
						c-0.1-0.3-0.2-0.7-0.3-1c-0.1-0.3-0.2-0.6-0.5-0.9c-0.2-0.3-0.4-0.6-0.6-0.9c-0.2-0.3-0.5-0.5-0.7-0.8
						c-0.3-0.3-0.6-0.5-0.9-0.7C285.7,309.1,285,308.8,284.3,308.5z"/>
				</g>
				<g>
					<path class="st1" d="M251.2,333.4c0,2.2-0.1,4.5-0.2,6.7l-0.2,3.3c-0.1,1.1-0.1,2.2-0.2,3.3l-0.1,1.4l-1.5-0.3
						c-1.4-0.3-2.8-0.6-4.1-0.9c-1.4-0.3-2.7-0.7-4.1-1.1c-2.7-0.8-5.4-1.6-8.1-2.6c-2.7-1-5.3-2.1-7.9-3.5
						c-0.6-0.4-1.3-0.7-1.9-1.2c-0.6-0.4-1.3-0.9-1.9-1.4c-0.6-0.5-1.2-1.1-1.8-1.7c-0.6-0.6-1.1-1.5-1.6-2.5l-0.1-0.2l0-0.3
						c-0.1-0.7-0.1-1.2-0.1-1.8c0-0.6,0-1.1,0-1.7c0.1-1.1,0.2-2.2,0.3-3.3c0.4-2.2,1-4.3,1.9-6.3c0.4-1,1-2,1.5-2.9
						c0.3-0.5,0.6-0.9,0.9-1.4c0.3-0.5,0.7-0.9,1-1.3c0.7-0.9,1.4-1.7,2.2-2.4c0.4-0.4,0.8-0.7,1.2-1.1c0.4-0.4,0.8-0.7,1.3-1
						c0.4-0.3,0.9-0.6,1.3-0.9l1.4-0.9c0.5-0.3,0.9-0.5,1.4-0.8c0.5-0.3,0.9-0.5,1.4-0.7l1.5-0.6l1.5-0.5c1-0.4,2-0.6,3-0.9
						c1-0.3,2-0.4,3-0.7c1-0.1,2-0.3,3.1-0.4c1-0.1,2-0.2,3.1-0.2c1,0,2,0,3.1,0c-1,0.3-2,0.5-2.9,0.8l-2.9,0.8l-2.8,1
						c-0.9,0.4-1.8,0.7-2.7,1.1c-0.9,0.4-1.8,0.8-2.7,1.2l-1.3,0.7l-1.2,0.7c-0.8,0.5-1.6,1-2.4,1.6l-1.1,0.9
						c-0.4,0.3-0.7,0.6-1.1,0.9c-0.4,0.3-0.7,0.6-1,1c-0.3,0.3-0.7,0.7-0.9,1c-0.6,0.7-1.2,1.4-1.7,2.2c-0.5,0.8-1,1.5-1.4,2.3
						c-0.4,0.8-0.8,1.6-1.1,2.5c-0.7,1.7-1.1,3.5-1.4,5.3c-0.1,0.9-0.2,1.8-0.3,2.7c0,0.5,0,0.9,0,1.3c0,0.4,0,0.9,0.1,1.2l-0.1-0.5
						c0.1,0.3,0.3,0.6,0.7,1c0.3,0.4,0.7,0.8,1.2,1.1c0.5,0.4,0.9,0.8,1.5,1.1c0.5,0.4,1.1,0.7,1.6,1c2.3,1.3,4.7,2.5,7.2,3.6
						c2.5,1.1,5,2.2,7.6,3.2l3.9,1.5c1.3,0.5,2.6,1,3.9,1.4l-1.7,1.1c0.2-1.1,0.5-2.2,0.7-3.3l0.8-3.3
						C250,337.7,250.6,335.5,251.2,333.4z"/>
				</g>
				<g>
					<path class="st1" d="M219.7,335.6c0,0-0.6,0.8-1.7,2.1c-1.1,1.3-2.6,3.2-4.3,5.5c-0.8,1.1-1.7,2.4-2.6,3.7
						c-0.8,1.3-1.7,2.8-2.3,4.3c-0.6,1.5-1.1,3-1.2,4.6c-0.1,1.5,0.1,3,0.8,4.3c0.3,0.7,0.7,1.4,1.2,2c0.3,0.3,0.5,0.6,0.8,1
						l0.1,0.1l0,0c0,0,0.1,0.1,0,0l0,0l0.1,0.1l0.3,0.2l0.4,0.3c1.2,0.9,2.8,1.6,4.4,2.1c1.6,0.5,3.3,0.7,4.8,0.8
						c1.6,0.1,3.1,0,4.5-0.1c1.4-0.1,2.7-0.4,3.8-0.7c1.1-0.3,2.1-0.6,2.9-0.9c0.8-0.3,1.4-0.5,1.8-0.7c0.4-0.2,0.7-0.3,0.7-0.3
						s-0.2,0.2-0.5,0.4c-0.4,0.3-0.9,0.7-1.6,1.2c-0.7,0.5-1.7,1-2.8,1.5c-1.1,0.5-2.4,1-3.9,1.4c-1.5,0.4-3.1,0.8-4.9,0.9
						c-1.8,0.1-3.7,0.1-5.6-0.2c-2-0.3-4-1-6-2.2c-0.2-0.2-0.6-0.4-0.8-0.5l-0.3-0.2l-0.1-0.1l-0.1-0.1l-0.2-0.1
						c-0.4-0.3-0.8-0.7-1.2-1.1c-0.8-0.8-1.5-1.7-2.1-2.8c-1.2-2.1-1.7-4.6-1.5-6.9c0.2-2.3,0.9-4.4,1.9-6.3
						c0.9-1.8,2.1-3.4,3.2-4.7c1.2-1.4,2.4-2.5,3.5-3.5c2.3-2,4.5-3.3,6-4.1c0.8-0.4,1.4-0.7,1.8-0.9
						C219.4,335.7,219.7,335.6,219.7,335.6z"/>
				</g>
				<g>
					<path class="st1" d="M205.7,360.7c-1.5-0.8-3.2-1.5-4.8-2c-0.8-0.3-1.6-0.5-2.5-0.8c-0.8-0.2-1.7-0.4-2.5-0.5
						c-0.4-0.1-0.8-0.1-1.3-0.2c-0.4,0-0.8-0.1-1.3-0.1c-0.4,0-0.8,0-1.3,0l-1.3,0.1c-0.4,0-0.8,0.1-1.2,0.2c-0.2,0-0.4,0.1-0.6,0.1
						l-0.6,0.2c-0.8,0.2-1.5,0.6-2.2,1c-2.9,1.9-5.7,3.9-8.4,6c-0.7,0.5-1.3,1.1-2,1.6c-0.7,0.6-1.3,1.1-1.9,1.7l-0.9,0.9l-0.8,0.9
						c-0.3,0.3-0.5,0.6-0.7,0.9c-0.2,0.3-0.3,0.6-0.5,0.9l-2.1,3.5l-0.3-4c-0.2-2.1-0.4-4.2-0.6-6.3c-0.3-2.1-0.6-4.2-0.9-6.3
						c-0.4-2.1-0.8-4.1-1.4-6.1c-0.3-1-0.6-1.9-1-2.8c-0.2-0.4-0.4-0.8-0.6-1.1c-0.2-0.3-0.4-0.5-0.5-0.5l-0.4-0.1l-0.3-0.5
						c-0.2-0.3-0.2-0.4-0.4-0.6c-0.1-0.2-0.2-0.4-0.3-0.6c-0.1-0.2-0.1-0.4-0.2-0.7c-0.1-0.2-0.1-0.5-0.1-0.8c0-0.3,0-0.6,0-0.9
						c0.1-0.3,0.1-0.6,0.2-0.9c0.1-0.3,0.3-0.6,0.5-0.9c0.2-0.3,0.4-0.5,0.6-0.7c0.2-0.2,0.5-0.4,0.7-0.5c0.2-0.1,0.5-0.2,0.7-0.3
						c0.2-0.1,0.4-0.1,0.7-0.2c0.2-0.1,0.4-0.1,0.6-0.1c0.4,0,0.8-0.1,1.2-0.1l1.1,0l0,0l0.2,0c0.9,0.1,1.8,0.2,2.8,0.3
						c0.9,0.1,1.9,0.2,2.8,0.2c1.9,0.1,3.7,0.2,5.5,0.1c1.8-0.1,3.6-0.2,5.3-0.5c0.4-0.1,0.8-0.2,1.2-0.3l0.5-0.2l0.4-0.2
						c0.2-0.2,0.5-0.3,0.5-0.4c0.1-0.1,0.1-0.2,0.1-0.2l0.8-1.3c0.1-0.1,0.4-0.3,0.6-0.5c0.2-0.2,0.4-0.4,0.6-0.6
						c0.3-0.4,0.6-0.8,0.7-1.2c0.1-0.2,0.1-0.3,0.1-0.4c0-0.1,0-0.1,0-0.1c0,0,0-0.1-0.1-0.1c-0.1-0.1-0.2-0.2-0.4-0.3
						c-0.2-0.1-0.4-0.2-0.6-0.3c-0.2-0.1-0.5-0.2-0.7-0.3c-0.3-0.1-0.6-0.2-0.8-0.2c-0.3-0.1-0.6-0.1-0.9-0.2
						c-0.6-0.1-1.2-0.2-1.9-0.3c-0.6-0.1-1.3-0.1-1.9-0.2l-1.3-0.1l-0.6-1.2c-0.6-1.2-1.5-2.5-2.3-3.7c-0.9-1.2-1.8-2.4-2.7-3.6
						c-1-1.2-2-2.2-3.1-3.3c-0.5-0.5-1.1-1-1.7-1.5c-0.6-0.5-1.2-0.9-1.7-1.4c-1.2-0.9-2.4-1.7-3.7-2.4c-1.3-0.7-2.6-1.3-4-1.8
						c-1.4-0.5-2.8-0.9-4.2-1.2c-0.7-0.1-1.4-0.2-2.1-0.3l-2.2-0.2c-1.5,0-2.9,0-4.4,0.2l-1.1,0.1l-1.1,0.2
						c-0.7,0.1-1.5,0.2-2.2,0.4l-2.1,0.6c-0.7,0.2-1.4,0.5-2.1,0.7c-1.4,0.5-2.8,1.1-4.1,1.7c-1.4,0.6-2.7,1.4-4,2.1
						c-1.3,0.8-2.6,1.6-3.9,2.4c-1.2,0.9-2.5,1.8-3.7,2.7l-3.6,2.9l-0.3,0.2l-0.3,0.1c-0.4,0.2-0.9,0.4-1.3,0.6
						c-0.4,0.2-0.9,0.4-1.3,0.7c-0.8,0.5-1.7,1-2.4,1.5c-0.8,0.5-1.5,1.1-2,1.7c-0.3,0.3-0.5,0.6-0.7,0.9c-0.1,0.1-0.1,0.3-0.2,0.4
						c0,0.1-0.1,0.2-0.1,0.3c0,0.2,0,0.2,0,0.3c0,0.1,0.1,0.1,0.1,0.2c0.1,0.1,0.1,0.2,0.2,0.3c0.1,0.1,0.2,0.2,0.3,0.3l0.5,0.3
						c0.3,0.2,0.7,0.4,1.1,0.6c0.4,0.2,0.8,0.4,1.3,0.6c0.4,0.2,0.9,0.3,1.3,0.5c0.5,0.1,0.9,0.3,1.4,0.4l1.4,0.4l-0.3,0
						c4.9,0.5,9.8,1.1,14.7,1.7l14.7,1.7l0.3,0l0.2,0.1c0.4,0.2,0.7,0.4,1,0.6c0.3,0.2,0.6,0.4,0.9,0.6c0.6,0.4,1.1,1,1.6,1.6
						c0.2,0.4,0.5,0.7,0.6,1.1c0.2,0.4,0.3,0.8,0.4,1.2l0.1,0.7c0,0.2,0,0.4,0,0.7l-0.1,0.6c0,0.2-0.1,0.4-0.2,0.6
						c-0.1,0.4-0.3,0.8-0.5,1.1l-0.6,1c-0.2,0.3-0.4,0.5-0.7,0.8c-0.2,0.3-0.4,0.5-0.7,0.7c-0.5,0.4-1,0.9-1.5,1.3l-1.6,1.1l0.7-1.4
						c0.5,6.3,1.1,12.6,1.6,18.9c0.3,3.1,0.6,6.3,1,9.4c0.2,1.6,0.4,3.1,0.6,4.7c0.1,0.8,0.2,1.5,0.4,2.3c0.1,0.4,0.1,0.8,0.2,1.1
						c0.1,0.2,0.1,0.4,0.1,0.5l0.1,0.2c0,0,0,0,0,0.1l0.2,0.2c0.2,0.5,0.5,1.1,0.9,1.7c0.3,0.5,0.7,1.1,1.1,1.6
						c0.2,0.2,0.4,0.5,0.6,0.7c0.2,0.2,0.4,0.5,0.7,0.7c0.2,0.2,0.5,0.4,0.7,0.6c0.3,0.2,0.5,0.3,0.8,0.5l0.9,0.4
						c0.3,0.1,0.6,0.1,0.9,0.2c0.3,0.1,0.6,0,0.9,0.1c0.3,0,0.6,0,0.9-0.1c0.3-0.1,0.6-0.1,0.9-0.2l0.9-0.4c0.3-0.1,0.6-0.3,0.8-0.5
						l0.8-0.5l-0.8,0.6c-0.3,0.2-0.5,0.4-0.8,0.5l-0.9,0.4c-0.3,0.2-0.6,0.2-0.9,0.3c-0.3,0.1-0.6,0.2-1,0.2c-0.3,0-0.7,0.1-1,0
						c-0.3-0.1-0.7-0.1-1-0.2l-1-0.3c-0.3-0.1-0.6-0.3-0.9-0.5c-0.3-0.2-0.6-0.4-0.8-0.6c-0.3-0.2-0.5-0.4-0.8-0.7
						c-0.3-0.2-0.5-0.5-0.7-0.7c-0.5-0.5-0.9-1-1.3-1.6c-0.4-0.6-0.7-1.1-1.1-1.7l0.2,0.2c-0.1-0.1-0.2-0.3-0.3-0.4l-0.1-0.3
						c-0.1-0.2-0.1-0.4-0.2-0.6c-0.1-0.4-0.2-0.8-0.3-1.2c-0.2-0.8-0.4-1.6-0.5-2.3c-0.3-1.6-0.6-3.1-0.9-4.7
						c-0.5-3.1-1-6.3-1.5-9.4c-0.9-6.3-1.7-12.5-2.5-18.8l-0.1-0.8l0.8-0.6l1.3-1c0.4-0.3,0.8-0.7,1.2-1.1c0.2-0.2,0.3-0.4,0.5-0.6
						l0.5-0.6l0.3-0.6c0.1-0.2,0.1-0.4,0.2-0.6c0-0.1,0.1-0.2,0.1-0.3c0-0.1,0-0.2,0-0.2c0-0.2,0-0.3,0-0.5c0-0.2-0.1-0.3-0.1-0.4
						c0-0.2-0.2-0.3-0.3-0.5c-0.2-0.3-0.5-0.6-0.9-0.9c-0.2-0.1-0.4-0.3-0.6-0.4c-0.2-0.1-0.4-0.2-0.6-0.3l0.5,0.1l-14.8-1.3
						c-4.9-0.4-9.8-0.9-14.8-1.3l-0.1,0l-0.1,0l-1.6-0.4c-0.5-0.1-1.1-0.3-1.6-0.5c-0.5-0.1-1.1-0.4-1.6-0.5
						c-0.5-0.2-1.1-0.4-1.6-0.7c-0.5-0.3-1.1-0.6-1.6-0.9c-0.3-0.2-0.5-0.4-0.8-0.6c-0.3-0.2-0.5-0.5-0.8-0.7
						c-0.3-0.3-0.5-0.6-0.7-0.9c-0.2-0.4-0.4-0.8-0.6-1.2c-0.3-0.9-0.3-1.9-0.2-2.7c0.1-0.4,0.2-0.8,0.4-1.2c0.2-0.3,0.3-0.7,0.5-1
						c0.4-0.6,0.8-1.1,1.2-1.6c0.9-0.9,1.8-1.7,2.7-2.3c0.9-0.7,1.9-1.3,2.8-1.8c0.5-0.3,1-0.5,1.5-0.8c0.5-0.3,1-0.5,1.5-0.7
						l-0.6,0.4l3.8-3.1c1.3-1,2.6-1.9,3.9-2.9c1.4-0.9,2.8-1.8,4.1-2.6c1.5-0.8,2.9-1.6,4.4-2.3c1.5-0.7,3-1.4,4.6-1.9
						c0.8-0.3,1.5-0.6,2.4-0.8l2.4-0.7c0.8-0.2,1.6-0.3,2.5-0.5l1.2-0.2l1.3-0.1c1.7-0.2,3.4-0.2,5.1-0.2l2.6,0.2
						c0.8,0.1,1.7,0.3,2.5,0.4c1.7,0.4,3.3,0.8,4.9,1.4c1.6,0.6,3.1,1.3,4.6,2.2c1.5,0.8,2.9,1.8,4.2,2.8c0.7,0.5,1.3,1,2,1.6
						c0.6,0.6,1.3,1.1,1.9,1.7c1.2,1.2,2.3,2.4,3.4,3.6c1.1,1.3,2.1,2.6,3,4c0.9,1.4,1.8,2.7,2.6,4.4l-1.9-1.3
						c0.7,0.1,1.4,0.1,2.2,0.3c0.7,0.1,1.5,0.2,2.2,0.4c0.4,0.1,0.7,0.2,1.1,0.3c0.4,0.1,0.8,0.2,1.1,0.4c0.4,0.1,0.8,0.3,1.2,0.5
						c0.4,0.2,0.8,0.4,1.2,0.7c0.4,0.3,0.8,0.6,1.2,1.1c0.4,0.5,0.7,1,1,1.6c0.2,0.6,0.3,1.3,0.3,1.9c-0.1,0.6-0.2,1.2-0.4,1.7
						c-0.4,1-0.9,1.7-1.5,2.4c-0.3,0.3-0.6,0.6-0.9,0.9c-0.3,0.3-0.6,0.5-1,0.9l0.8-1.3c-0.2,0.9-0.6,1.7-1.2,2.3
						c-0.5,0.6-1.1,1-1.7,1.3l-0.8,0.4l-0.8,0.3c-0.5,0.2-1.1,0.3-1.6,0.4c-2.1,0.4-4.1,0.5-6.1,0.5c-2,0-3.9-0.1-5.9-0.3
						c-1-0.1-1.9-0.2-2.9-0.3c-1-0.1-1.9-0.2-2.9-0.4l0.2,0l-0.8,0c-0.3,0-0.5,0-0.8,0.1c-0.1,0-0.2,0-0.3,0.1l-0.3,0.1
						c-0.1,0-0.1,0.1-0.2,0.1c-0.1,0-0.1,0.1-0.1,0.1c-0.1,0,0,0,0,0c0,0,0,0,0,0c0,0,0,0,0,0c0,0,0,0.1,0,0.1c0,0.1,0,0.1,0,0.2
						c0,0.1,0,0.2,0.1,0.3c0,0.1,0.1,0.2,0.1,0.3l0.1,0.2l-0.7-0.6c0.9,0.5,1.4,1.1,1.8,1.7c0.4,0.6,0.7,1.1,0.9,1.7
						c0.5,1.1,0.8,2.2,1.1,3.3c0.5,2.2,0.9,4.3,1.2,6.5c0.3,2.2,0.5,4.3,0.7,6.4c0.2,2.2,0.3,4.3,0.4,6.5l-2.5-0.5
						c0.3-0.4,0.5-0.9,0.8-1.3c0.3-0.4,0.6-0.8,0.9-1.1l1-1l1-0.9c0.7-0.6,1.4-1.2,2.1-1.7c0.7-0.6,1.4-1.1,2.1-1.6
						c2.9-2,5.8-3.9,8.9-5.7c0.9-0.4,1.7-0.8,2.6-1l0.7-0.2c0.2,0,0.5-0.1,0.7-0.1c0.5,0,0.9-0.1,1.4-0.1l1.4,0
						c0.4,0,0.9,0.1,1.3,0.1c0.4,0,0.9,0.1,1.3,0.2c0.4,0.1,0.9,0.2,1.3,0.3c0.9,0.2,1.7,0.5,2.5,0.7c0.8,0.3,1.6,0.6,2.4,1
						C202.7,359,204.2,359.8,205.7,360.7z"/>
				</g>
				<g>
					<path class="st1" d="M222.8,378.6c0,0-0.5-0.5-1.6-1.4c-1.1-0.9-2.7-2.1-5-3.4c-2.2-1.3-5.1-2.7-8.5-3.5
						c-3.4-0.8-7.4-0.9-11.4,0.4c-2,0.6-4,1.6-5.9,2.8c-2,1.3-4,2.7-6.1,4.2c-4.1,3-8.3,6.4-12.4,10.1c-4.1,3.7-8.1,7.8-11.7,12.2
						c-3.6,4.5-6.8,9.3-9,14.6c-2.1,5.3-3.3,10.9-2.6,16.4c0.3,2.7,1,5.4,2,7.9c1,2.5,2.3,4.9,3.9,7.2c3,4.5,6.8,8.3,10.7,11.7
						c0.5,0.4,1,0.8,1.4,1.2l0.4,0.3c0.1,0.1,0.2,0.2,0.4,0.3c0.3,0.2,0.5,0.4,0.8,0.5c1,0.6,2.1,1.1,3.2,1.6c2.2,0.9,4.4,1.5,6.6,2
						c4.3,1,8.4,1.5,12.1,1.8c3.6,0.3,6.8,0.4,9.4,0.3c2.6-0.1,4.7-0.3,6.1-0.6c0.7-0.1,1.2-0.3,1.6-0.4c0.3-0.1,0.5-0.2,0.5-0.2
						s-0.2,0.1-0.5,0.2c-0.3,0.1-0.9,0.3-1.5,0.5c-1.4,0.3-3.4,0.7-6.1,0.9c-2.6,0.2-5.8,0.3-9.5,0.2c-3.7-0.1-7.8-0.5-12.3-1.3
						c-2.2-0.4-4.6-1-6.9-1.8c-1.2-0.4-2.3-0.9-3.5-1.6c-0.3-0.2-0.6-0.3-0.8-0.5l-0.4-0.3l-0.4-0.3c-0.5-0.4-1.1-0.7-1.6-1.1
						c-1.1-0.7-2.1-1.6-3.2-2.4c-1-0.9-2.1-1.7-3.1-2.7c-2.1-1.9-4-3.9-5.8-6.3c-3.6-4.6-6.5-10.3-7.4-16.6
						c-1-6.3,0.1-12.9,2.5-18.8c2.4-5.9,5.8-11.2,9.7-15.9c3.9-4.7,8.1-8.9,12.5-12.6c4.4-3.7,8.8-7,13.2-9.9c2.2-1.4,4.4-2.8,6.5-4
						c2.2-1.3,4.6-2.2,7-2.8c4.7-1.1,9.3-0.6,12.9,0.6c3.6,1.2,6.4,3,8.6,4.6c2.1,1.6,3.6,3.1,4.6,4.1
						C222.4,378,222.8,378.6,222.8,378.6z"/>
				</g>
			</g>
			<circle class="st1" cx="194.6" cy="389.7" r="5"/>
			<circle class="st1" cx="179.5" cy="409" r="5"/>
			<circle class="st1" cx="174.5" cy="434.9" r="5"/>
		</g>
		<g>
			<path class="st0" d="M148.9,306.9c0,0-0.6-0.2-1.6-0.6c-1-0.4-2.5-1.1-4.2-2.2c-1.7-1.1-3.8-2.6-5.8-4.8c-1-1.1-2-2.4-2.9-3.9
				c-0.4-0.8-0.9-1.5-1.2-2.4c-0.2-0.4-0.4-0.9-0.5-1.3c-0.1-0.5-0.3-0.9-0.4-1.4c-1-3.8-0.8-8.3,0.6-12.6c1.4-4.3,3.8-8.2,6.6-11.8
				c1.4-1.8,3-3.5,4.6-5.1l1.2-1.2l1.3-1.2c0.9-0.8,1.7-1.6,2.6-2.3c1.8-1.4,3.6-3,5.5-4.3c1.8-1.3,3.7-2.6,5.5-3.9l1.4-1
				c0.4-0.3,0.8-0.6,1.2-1l2.5-1.9c1.6-1.4,3.2-2.7,4.7-4.1c0.7-0.7,1.5-1.4,2.1-2.2c0.7-0.7,1.4-1.4,2-2.2c0.6-0.8,1.2-1.5,1.8-2.3
				c0.5-0.8,1.1-1.6,1.6-2.3c2-3.2,3.2-6.4,3.8-9.7c0.5-3.3,0.3-6.5-0.4-9.4c-0.7-3-1.9-5.6-3.2-8c-1.3-2.3-2.6-4.2-3.8-5.8
				c-1.2-1.5-2.2-2.8-2.9-3.5c-0.7-0.8-1.1-1.2-1.1-1.2s0.5,0.2,1.5,0.7c0.9,0.5,2.3,1.3,3.9,2.5c1.6,1.2,3.5,2.8,5.5,5
				c1.9,2.1,3.9,4.9,5.5,8.3c1.6,3.4,2.6,7.5,2.5,12c-0.1,4.5-1.3,9.2-3.5,13.4c-0.6,1-1.1,2.1-1.8,3.1c-0.6,1-1.3,2-2,3
				c-1.4,1.9-2.9,3.8-4.6,5.5c-1.6,1.8-3.4,3.3-5.2,4.9l-2.8,2.3c-0.5,0.4-1,0.8-1.4,1.1l-1.4,1c-1.9,1.3-3.7,2.6-5.5,3.9
				c-1.8,1.2-3.5,2.5-5.2,3.8c-0.8,0.6-1.6,1.3-2.4,2l-1.2,1l-1.1,1c-1.6,1.3-3,2.7-4.3,4.1c-2.7,2.8-4.9,5.7-6.4,8.7
				c-1.4,3-2.1,6-1.9,8.8c0.2,2.8,1.1,5.5,2.4,7.7c1.2,2.2,2.7,4.1,4,5.5c1.3,1.4,2.4,2.5,3.2,3.2
				C148.5,306.5,148.9,306.9,148.9,306.9z"/>
		</g>
		<g>
			<path class="st2" d="M132.4,305.2c0,0-0.7-0.1-1.9-0.6c-1.2-0.4-3.1-1.1-5.2-2.3c-2.2-1.2-4.8-2.8-7.4-5.2
				c-1.3-1.2-2.6-2.7-3.8-4.4c-0.6-0.9-1.2-1.8-1.6-2.8c-0.2-0.5-0.5-1-0.7-1.5c-0.2-0.5-0.4-1.1-0.6-1.6c-1.6-4.4-1.7-9.8-0.5-14.9
				c1.2-5.2,3.7-10.1,6.7-14.7c1.5-2.3,3.2-4.5,5-6.6l1.3-1.6l1.4-1.5c1-1,1.9-2.1,2.9-3c2-1.9,4-4,6.2-5.8c2.1-1.8,4.1-3.6,6.2-5.4
				l1.6-1.3c0.5-0.4,0.9-0.9,1.4-1.3l2.8-2.6c1.7-1.9,3.6-3.7,5.2-5.6c0.8-1,1.7-1.9,2.4-2.9c0.7-1,1.5-2,2.2-3c0.6-1,1.3-2,1.9-3
				c0.6-1,1.1-2.1,1.7-3.1c2-4.2,3.2-8.4,3.4-12.6c0.2-4.1-0.5-8.1-1.9-11.6c-1.3-3.5-3.2-6.6-5-9.3c-1.9-2.6-3.8-4.8-5.4-6.5
				c-1.7-1.7-3-3-4-3.8c-1-0.8-1.5-1.3-1.5-1.3s0.7,0.2,1.8,0.8c1.2,0.6,2.9,1.4,5,2.8c2.1,1.3,4.5,3.1,7.1,5.5
				c2.5,2.4,5.2,5.5,7.4,9.4c2.2,3.9,3.8,8.7,4.1,14c0.3,5.3-0.7,11-2.8,16.2c-0.6,1.3-1.1,2.6-1.8,3.9c-0.7,1.3-1.4,2.5-2.1,3.7
				c-1.5,2.4-3.1,4.8-4.9,7c-0.9,1.1-1.8,2.3-2.8,3.3c-1,1.1-1.9,2.1-2.9,3.2c-1,1-2.1,2-3.1,3c-0.5,0.5-1.1,1-1.6,1.5l-1.6,1.3
				c-2.1,1.8-4.2,3.5-6.3,5.3c-2.1,1.7-4,3.5-5.9,5.2c-0.9,0.9-1.8,1.8-2.8,2.7l-1.4,1.3l-1.3,1.4c-1.8,1.8-3.3,3.7-4.8,5.6
				c-2.9,3.8-5.3,7.7-6.7,11.6c-0.2,0.5-0.3,1-0.5,1.5l-0.2,0.7L117,277c-0.1,0.5-0.2,1-0.3,1.4c-0.1,0.5-0.1,1-0.2,1.4
				c-0.2,1-0.1,1.9-0.1,2.8c0,0.5,0.1,0.9,0.1,1.4c0.1,0.4,0.1,0.9,0.2,1.3c0.6,3.5,2.2,6.7,4.1,9.2c1.8,2.6,3.8,4.6,5.6,6.1
				c1.8,1.5,3.3,2.7,4.4,3.4C131.8,304.9,132.4,305.2,132.4,305.2z"/>
		</g>
		<g>
			<path class="st3" d="M128.1,331.2c0,0,0.5-0.8,1.5-2c1-1.2,2.6-2.9,4.8-4.6c1.1-0.8,2.3-1.7,3.7-2.5c1.4-0.8,2.9-1.6,4.6-2.2
				c1.6-0.7,3.4-1.2,5.3-1.6c1.9-0.4,3.8-0.5,5.8-0.4c2,0.1,3.9,0.4,5.8,1c0.5,0.1,0.9,0.3,1.4,0.4c0.4,0.2,0.9,0.4,1.3,0.6
				c0.9,0.3,1.7,0.8,2.5,1.2c1.6,0.9,3,1.9,4.2,3c0.6,0.5,1.2,1.1,1.7,1.6c0.5,0.6,1,1.1,1.4,1.6c0.4,0.6,0.8,1.1,1.2,1.6
				c0.4,0.5,0.7,1,1,1.5c0.6,0.9,1.1,1.8,1.4,2.5c0.7,1.4,1,2.3,1,2.3s-0.7-0.6-1.8-1.7c-0.5-0.6-1.3-1.2-2.1-1.9
				c-0.8-0.7-1.8-1.4-2.8-2.3c-0.5-0.4-1.1-0.8-1.6-1.2c-0.6-0.4-1.1-0.8-1.8-1.2c-1.2-0.8-2.5-1.5-3.9-2.1
				c-0.7-0.3-1.4-0.6-2.2-0.8c-0.4-0.1-0.7-0.2-1.1-0.4c-0.4-0.1-0.8-0.2-1.1-0.3c-1.5-0.4-3.1-0.6-4.7-0.7c-1.6-0.1-3.2,0-4.8,0.2
				c-1.6,0.2-3.2,0.5-4.7,1c-1.5,0.4-3,0.9-4.3,1.4c-1.4,0.5-2.6,1.1-3.8,1.6c-1.2,0.6-2.3,1.1-3.2,1.6c-1,0.5-1.8,1-2.5,1.3
				c-0.7,0.4-1.2,0.7-1.6,0.9C128.3,331.1,128.1,331.2,128.1,331.2z"/>
		</g>
		<line class="st4" x1="147.8" y1="359" x2="167.9" y2="356.1"/>
		<line class="st4" x1="147.8" y1="367" x2="167.9" y2="364.2"/>
	</g>
	<g>
		<path class="st0" d="M343.4,332.2v3h-16.8v-30.4h3.4v27.4H343.4z"/>
		<path class="st0" d="M347.2,304.5h3.3v3.8h-3.3V304.5z M347.2,313.3h3.3v22h-3.3V313.3z"/>
		<path class="st0" d="M357.6,333c-1.2-1.8-1.8-4.6-1.8-8.3c0-4.2,0.7-7.2,2.2-9.1s3.8-2.8,7.2-2.8c1.7,0,3.4,0.2,5.2,0.6v-9.7h3.3
			v31.6h-3.3v-1.5c-2.3,1.3-4.5,1.9-6.8,1.9C360.8,335.7,358.8,334.8,357.6,333z M367,332.4c1-0.2,1.8-0.5,2.6-0.9l0.9-0.4v-14.9
			c-1.9-0.4-3.6-0.5-5-0.5c-2.3,0-3.9,0.7-4.9,2c-0.9,1.3-1.4,3.6-1.4,6.7c0,2.8,0.4,5,1.1,6.3c0.7,1.4,2,2,3.9,2
			C365,332.7,366,332.6,367,332.4z"/>
		<path class="st0" d="M380,304.5h3.3v3.8H380V304.5z M380,313.3h3.3v22H380V313.3z"/>
		<path class="st0" d="M389.6,313.3h3.3v1.5c1.3-0.7,2.5-1.2,3.6-1.5c1.1-0.3,2.3-0.4,3.5-0.4c1.9,0,3.3,0.4,4.4,1.1
			c1,0.7,1.8,1.8,2.2,3.4c0.4,1.5,0.6,3.7,0.6,6.4v11.6h-3.3v-11.5c0-2.1-0.1-3.7-0.4-4.8c-0.2-1.1-0.7-1.9-1.3-2.4
			c-0.6-0.5-1.6-0.7-2.8-0.7c-1,0-2,0.1-3.1,0.4c-1,0.3-1.9,0.5-2.5,0.9l-0.8,0.4v17.9h-3.3V313.3z"/>
		<path class="st0" d="M414.3,344.1c-1.4-1-2-2.6-2-4.9c0-0.9,0.1-1.7,0.3-2.3c0.2-0.6,0.6-1.1,1-1.6c0.5-0.5,1.2-1.1,2.1-1.8
			c-0.4-0.3-0.7-0.7-0.9-1.2c-0.2-0.5-0.3-1.1-0.3-1.7c0-0.4,0.1-0.8,0.3-1.3c0.2-0.5,0.6-1.3,1.2-2.4c-2.3-1-3.5-3.2-3.5-6.6
			c0-2.6,0.7-4.5,2.1-5.7c1.4-1.2,3.5-1.9,6.2-1.9c1.3,0,2.8,0.2,4.5,0.6l6.5-0.2v2.8l-4.2-0.1c0.5,0.5,0.9,1.1,1.1,1.8
			c0.2,0.7,0.4,1.6,0.4,2.8c0,2.6-0.7,4.5-2,5.6c-1.3,1.1-3.5,1.7-6.4,1.7c-0.9,0-1.7-0.1-2.2-0.2c-0.2,0.6-0.4,1.1-0.6,1.5
			c-0.1,0.4-0.2,0.8-0.2,1.1c0,0.8,0.3,1.3,0.9,1.5s1.5,0.4,2.8,0.4h1.7c1.9,0,3.5,0.1,4.7,0.4c1.2,0.3,2.1,0.9,2.8,1.8
			c0.6,0.9,1,2.2,1,3.9c0,2.6-0.8,4.4-2.4,5.6c-1.6,1.2-4.2,1.8-7.8,1.8C418,345.6,415.7,345.1,414.3,344.1z M426.7,341.8
			c1-0.7,1.5-1.8,1.5-3.4c0-0.9-0.2-1.7-0.5-2.1c-0.3-0.5-0.9-0.8-1.6-1s-1.9-0.3-3.3-0.3l-4.8-0.2c-1,0.7-1.6,1.3-2,1.8
			c-0.3,0.5-0.5,1.2-0.5,2.1c0,1.5,0.4,2.6,1.3,3.2c0.9,0.6,2.5,0.9,4.7,0.9C424,342.8,425.7,342.5,426.7,341.8z M424.7,324
			c0.8-0.7,1.1-2,1.1-3.7c0-1.7-0.4-3-1.1-3.7c-0.8-0.7-2-1.1-3.8-1.1c-1.8,0-3.1,0.4-3.9,1.1s-1.2,2-1.2,3.7c0,1.7,0.4,3,1.2,3.7
			s2.1,1.1,3.9,1.1C422.7,325.1,423.9,324.8,424.7,324z"/>
		<path class="st0" d="M438.7,334.5c-1.4-0.8-2.4-2-2.9-3.6c-0.6-1.6-0.9-3.8-0.9-6.5c0-2.8,0.3-5,0.9-6.7c0.6-1.7,1.6-2.9,3-3.7
			c1.4-0.8,3.2-1.2,5.5-1.2c2.3,0,4.2,0.4,5.5,1.2c1.4,0.8,2.4,2,3,3.7c0.6,1.7,0.9,3.9,0.9,6.7c0,2.7-0.3,4.9-0.9,6.5
			c-0.6,1.6-1.6,2.9-2.9,3.6c-1.4,0.8-3.2,1.2-5.6,1.2C442,335.7,440.1,335.3,438.7,334.5z M438.2,304h3.2v4h-3.2V304z M448.1,332
			c0.8-0.5,1.4-1.4,1.8-2.6c0.3-1.2,0.5-2.9,0.5-5c0-2.3-0.2-4-0.5-5.3c-0.4-1.2-1-2.1-1.8-2.6s-2.1-0.8-3.7-0.8s-2.8,0.3-3.7,0.8
			c-0.9,0.5-1.5,1.4-1.8,2.6c-0.4,1.2-0.5,3-0.5,5.3c0,2.1,0.2,3.8,0.5,5s0.9,2.1,1.8,2.6c0.9,0.5,2.1,0.8,3.8,0.8
			C446,332.8,447.2,332.6,448.1,332z M447,304h3.2v4H447V304z"/>
		<path class="st0" d="M469.4,304.8h11.3c3.3,0,5.7,0.8,7.3,2.3s2.4,3.8,2.4,7c0,4.7-1.9,7.7-5.6,8.8l5.9,12.4h-3.7l-5.5-11.7h-8.6
			v11.7h-3.4V304.8z M480.7,320.6c4.1,0,6.2-2.1,6.2-6.4c0-4.3-2.1-6.4-6.2-6.4h-7.9v12.8H480.7z"/>
		<path class="st0" d="M495.9,304.5h3.3v3.8h-3.3V304.5z M495.9,313.3h3.3v22h-3.3V313.3z"/>
		<path class="st0" d="M505.9,335.1l-1.3-0.2l0.2-2.9c3.4,0.5,6,0.7,7.6,0.7c1.8,0,3.1-0.3,3.9-0.9s1.3-1.5,1.3-2.8
			c0-0.9-0.2-1.6-0.6-2.1c-0.4-0.5-1-0.8-1.6-1c-0.7-0.2-1.6-0.4-2.8-0.6l-1.1-0.2c-1.8-0.3-3.1-0.6-4.1-1.1c-1-0.4-1.7-1-2.2-1.7
			s-0.7-1.8-0.7-3.1c0-2.4,0.7-4.1,2.2-5.1c1.4-1,3.5-1.5,6.1-1.5c2.1,0,4.2,0.2,6.4,0.6l1.2,0.2l-0.1,2.8c-3.2-0.5-5.6-0.7-7.4-0.7
			c-1.7,0-3,0.3-3.8,0.8c-0.8,0.5-1.3,1.3-1.3,2.5c0,0.8,0.2,1.4,0.6,1.8c0.4,0.4,0.9,0.7,1.6,0.9c0.7,0.2,1.6,0.4,2.8,0.6l1.1,0.2
			c1.8,0.3,3.2,0.7,4.2,1.1c1,0.4,1.7,1,2.2,1.8c0.5,0.8,0.7,1.9,0.7,3.3c0,2.4-0.7,4.1-2.1,5.2s-3.5,1.7-6.4,1.7
			C510.6,335.7,508.5,335.5,505.9,335.1z"/>
		<path class="st0" d="M529.4,335c-0.8-0.5-1.4-1.3-1.8-2.5c-0.4-1.2-0.6-2.8-0.6-4.9v-11.6H524v-2.9h3.1v-6.7h3.3v6.7h7v2.9h-7
			v10.5c0,1.6,0.1,2.9,0.2,3.7c0.1,0.8,0.4,1.4,0.9,1.8c0.5,0.4,1.2,0.6,2.1,0.6l3.9-0.3l0.2,2.7c-2.1,0.3-3.7,0.5-4.7,0.5
			C531.4,335.7,530.3,335.5,529.4,335z"/>
		<path class="st0" d="M544.2,334.5c-1.4-0.8-2.4-2-2.9-3.6c-0.6-1.6-0.9-3.8-0.9-6.5c0-2.8,0.3-5,0.9-6.7c0.6-1.7,1.6-2.9,3-3.7
			c1.4-0.8,3.2-1.2,5.5-1.2c2.3,0,4.2,0.4,5.5,1.2c1.4,0.8,2.4,2,3,3.7c0.6,1.7,0.9,3.9,0.9,6.7c0,2.7-0.3,4.9-0.9,6.5
			c-0.6,1.6-1.6,2.9-2.9,3.6c-1.4,0.8-3.2,1.2-5.6,1.2C547.5,335.7,545.6,335.3,544.2,334.5z M553.6,332c0.8-0.5,1.4-1.4,1.8-2.6
			c0.3-1.2,0.5-2.9,0.5-5c0-2.3-0.2-4-0.5-5.3c-0.4-1.2-1-2.1-1.8-2.6s-2.1-0.8-3.7-0.8s-2.8,0.3-3.7,0.8c-0.9,0.5-1.5,1.4-1.8,2.6
			c-0.4,1.2-0.5,3-0.5,5.3c0,2.1,0.2,3.8,0.5,5s0.9,2.1,1.8,2.6c0.9,0.5,2.1,0.8,3.8,0.8C551.5,332.8,552.7,332.6,553.6,332z"/>
		<path class="st0" d="M564.6,313.3h3.3v3c2.5-1.7,5.2-2.9,8.1-3.5v3.3c-1.1,0.2-2.4,0.6-3.7,1.1c-1.3,0.5-2.4,0.9-3.2,1.3l-1.1,0.6
			v16.1h-3.3V313.3z"/>
		<path class="st0" d="M580,334c-1.1-1.1-1.6-2.8-1.6-4.9c0-2.1,0.5-3.7,1.6-4.7c1.1-1,2.8-1.7,5.1-1.9l6.9-0.7v-1.9
			c0-2.8-1.2-4.2-3.6-4.2c-2.4,0-5.3,0.2-8.7,0.6l-0.1-2.5c3.1-0.6,6-1,8.6-1c2.5,0,4.3,0.6,5.4,1.7c1.1,1.1,1.7,2.9,1.7,5.4v11.3
			c0.1,1.1,0.9,1.7,2.6,1.9l-0.1,2.6c-2.3,0-4.1-0.6-5.2-1.8c-2.6,1.2-5.3,1.8-7.9,1.8C582.6,335.7,581.1,335.1,580,334z
			 M591.1,331.9l1-0.4v-7.3l-6.5,0.6c-1.3,0.1-2.3,0.5-2.9,1.1c-0.6,0.6-0.9,1.6-0.9,2.8c0,2.7,1.1,4,3.3,4
			C587.1,332.9,589.1,332.6,591.1,331.9z"/>
		<path class="st0" d="M601.9,313.3h3.3v1.5c1.3-0.7,2.5-1.2,3.6-1.5c1.1-0.3,2.3-0.4,3.5-0.4c1.9,0,3.3,0.4,4.4,1.1
			c1,0.7,1.8,1.8,2.2,3.4c0.4,1.5,0.6,3.7,0.6,6.4v11.6h-3.3v-11.5c0-2.1-0.1-3.7-0.4-4.8c-0.2-1.1-0.7-1.9-1.3-2.4
			c-0.6-0.5-1.6-0.7-2.8-0.7c-1,0-2,0.1-3.1,0.4c-1,0.3-1.9,0.5-2.5,0.9l-0.8,0.4v17.9h-3.3V313.3z"/>
		<path class="st0" d="M629,335c-0.8-0.5-1.4-1.3-1.8-2.5c-0.4-1.2-0.6-2.8-0.6-4.9v-11.6h-3.1v-2.9h3.1v-6.7h3.3v6.7h7v2.9h-7v10.5
			c0,1.6,0.1,2.9,0.2,3.7c0.1,0.8,0.4,1.4,0.9,1.8c0.5,0.4,1.2,0.6,2.1,0.6l3.9-0.3l0.2,2.7c-2.1,0.3-3.7,0.5-4.7,0.5
			C631,335.7,629.8,335.5,629,335z"/>
		<path class="st0" d="M642.1,333.1c-1.4-1.7-2.1-4.5-2.1-8.3c0-4.1,0.7-7.1,2.2-9.1c1.5-2,3.8-2.9,7-2.9c2.9,0,5.1,0.8,6.6,2.5
			c1.5,1.7,2.2,4.3,2.2,7.8l-0.2,2.5h-14.5c0,1.8,0.2,3.2,0.6,4.3c0.4,1,1.1,1.8,2,2.2c1,0.5,2.3,0.7,4,0.7c0.9,0,1.8,0,2.9-0.1
			c1.1,0,2.1-0.1,3-0.2l1.3-0.1l0.1,2.6c-3.3,0.5-6,0.7-8.1,0.7C645.8,335.7,643.5,334.8,642.1,333.1z M654.7,323
			c0-2.7-0.4-4.6-1.3-5.7c-0.9-1.1-2.2-1.7-4.2-1.7c-2,0-3.5,0.6-4.5,1.8c-1,1.2-1.5,3.1-1.5,5.6H654.7z"/>
	</g>
	<g>
		<path class="st0" d="M343.4,332.2v3h-16.8v-30.4h3.4v27.4H343.4z"/>
		<path class="st0" d="M347.2,304.5h3.3v3.8h-3.3V304.5z M347.2,313.3h3.3v22h-3.3V313.3z"/>
		<path class="st0" d="M357.6,333c-1.2-1.8-1.8-4.6-1.8-8.3c0-4.2,0.7-7.2,2.2-9.1s3.8-2.8,7.2-2.8c1.7,0,3.4,0.2,5.2,0.6v-9.7h3.3
			v31.6h-3.3v-1.5c-2.3,1.3-4.5,1.9-6.8,1.9C360.8,335.7,358.8,334.8,357.6,333z M367,332.4c1-0.2,1.8-0.5,2.6-0.9l0.9-0.4v-14.9
			c-1.9-0.4-3.6-0.5-5-0.5c-2.3,0-3.9,0.7-4.9,2c-0.9,1.3-1.4,3.6-1.4,6.7c0,2.8,0.4,5,1.1,6.3c0.7,1.4,2,2,3.9,2
			C365,332.7,366,332.6,367,332.4z"/>
		<path class="st0" d="M380,304.5h3.3v3.8H380V304.5z M380,313.3h3.3v22H380V313.3z"/>
		<path class="st0" d="M389.6,313.3h3.3v1.5c1.3-0.7,2.5-1.2,3.6-1.5c1.1-0.3,2.3-0.4,3.5-0.4c1.9,0,3.3,0.4,4.4,1.1
			c1,0.7,1.8,1.8,2.2,3.4c0.4,1.5,0.6,3.7,0.6,6.4v11.6h-3.3v-11.5c0-2.1-0.1-3.7-0.4-4.8c-0.2-1.1-0.7-1.9-1.3-2.4
			c-0.6-0.5-1.6-0.7-2.8-0.7c-1,0-2,0.1-3.1,0.4c-1,0.3-1.9,0.5-2.5,0.9l-0.8,0.4v17.9h-3.3V313.3z"/>
		<path class="st0" d="M414.3,344.1c-1.4-1-2-2.6-2-4.9c0-0.9,0.1-1.7,0.3-2.3c0.2-0.6,0.6-1.1,1-1.6c0.5-0.5,1.2-1.1,2.1-1.8
			c-0.4-0.3-0.7-0.7-0.9-1.2c-0.2-0.5-0.3-1.1-0.3-1.7c0-0.4,0.1-0.8,0.3-1.3c0.2-0.5,0.6-1.3,1.2-2.4c-2.3-1-3.5-3.2-3.5-6.6
			c0-2.6,0.7-4.5,2.1-5.7c1.4-1.2,3.5-1.9,6.2-1.9c1.3,0,2.8,0.2,4.5,0.6l6.5-0.2v2.8l-4.2-0.1c0.5,0.5,0.9,1.1,1.1,1.8
			c0.2,0.7,0.4,1.6,0.4,2.8c0,2.6-0.7,4.5-2,5.6c-1.3,1.1-3.5,1.7-6.4,1.7c-0.9,0-1.7-0.1-2.2-0.2c-0.2,0.6-0.4,1.1-0.6,1.5
			c-0.1,0.4-0.2,0.8-0.2,1.1c0,0.8,0.3,1.3,0.9,1.5s1.5,0.4,2.8,0.4h1.7c1.9,0,3.5,0.1,4.7,0.4c1.2,0.3,2.1,0.9,2.8,1.8
			c0.6,0.9,1,2.2,1,3.9c0,2.6-0.8,4.4-2.4,5.6c-1.6,1.2-4.2,1.8-7.8,1.8C418,345.6,415.7,345.1,414.3,344.1z M426.7,341.8
			c1-0.7,1.5-1.8,1.5-3.4c0-0.9-0.2-1.7-0.5-2.1c-0.3-0.5-0.9-0.8-1.6-1s-1.9-0.3-3.3-0.3l-4.8-0.2c-1,0.7-1.6,1.3-2,1.8
			c-0.3,0.5-0.5,1.2-0.5,2.1c0,1.5,0.4,2.6,1.3,3.2c0.9,0.6,2.5,0.9,4.7,0.9C424,342.8,425.7,342.5,426.7,341.8z M424.7,324
			c0.8-0.7,1.1-2,1.1-3.7c0-1.7-0.4-3-1.1-3.7c-0.8-0.7-2-1.1-3.8-1.1c-1.8,0-3.1,0.4-3.9,1.1s-1.2,2-1.2,3.7c0,1.7,0.4,3,1.2,3.7
			s2.1,1.1,3.9,1.1C422.7,325.1,423.9,324.8,424.7,324z"/>
		<path class="st0" d="M438.7,334.5c-1.4-0.8-2.4-2-2.9-3.6c-0.6-1.6-0.9-3.8-0.9-6.5c0-2.8,0.3-5,0.9-6.7c0.6-1.7,1.6-2.9,3-3.7
			c1.4-0.8,3.2-1.2,5.5-1.2c2.3,0,4.2,0.4,5.5,1.2c1.4,0.8,2.4,2,3,3.7c0.6,1.7,0.9,3.9,0.9,6.7c0,2.7-0.3,4.9-0.9,6.5
			c-0.6,1.6-1.6,2.9-2.9,3.6c-1.4,0.8-3.2,1.2-5.6,1.2C442,335.7,440.1,335.3,438.7,334.5z M438.2,304h3.2v4h-3.2V304z M448.1,332
			c0.8-0.5,1.4-1.4,1.8-2.6c0.3-1.2,0.5-2.9,0.5-5c0-2.3-0.2-4-0.5-5.3c-0.4-1.2-1-2.1-1.8-2.6s-2.1-0.8-3.7-0.8s-2.8,0.3-3.7,0.8
			c-0.9,0.5-1.5,1.4-1.8,2.6c-0.4,1.2-0.5,3-0.5,5.3c0,2.1,0.2,3.8,0.5,5s0.9,2.1,1.8,2.6c0.9,0.5,2.1,0.8,3.8,0.8
			C446,332.8,447.2,332.6,448.1,332z M447,304h3.2v4H447V304z"/>
		<path class="st0" d="M469.4,304.8h11.3c3.3,0,5.7,0.8,7.3,2.3s2.4,3.8,2.4,7c0,4.7-1.9,7.7-5.6,8.8l5.9,12.4h-3.7l-5.5-11.7h-8.6
			v11.7h-3.4V304.8z M480.7,320.6c4.1,0,6.2-2.1,6.2-6.4c0-4.3-2.1-6.4-6.2-6.4h-7.9v12.8H480.7z"/>
		<path class="st0" d="M495.9,304.5h3.3v3.8h-3.3V304.5z M495.9,313.3h3.3v22h-3.3V313.3z"/>
		<path class="st0" d="M505.9,335.1l-1.3-0.2l0.2-2.9c3.4,0.5,6,0.7,7.6,0.7c1.8,0,3.1-0.3,3.9-0.9s1.3-1.5,1.3-2.8
			c0-0.9-0.2-1.6-0.6-2.1c-0.4-0.5-1-0.8-1.6-1c-0.7-0.2-1.6-0.4-2.8-0.6l-1.1-0.2c-1.8-0.3-3.1-0.6-4.1-1.1c-1-0.4-1.7-1-2.2-1.7
			s-0.7-1.8-0.7-3.1c0-2.4,0.7-4.1,2.2-5.1c1.4-1,3.5-1.5,6.1-1.5c2.1,0,4.2,0.2,6.4,0.6l1.2,0.2l-0.1,2.8c-3.2-0.5-5.6-0.7-7.4-0.7
			c-1.7,0-3,0.3-3.8,0.8c-0.8,0.5-1.3,1.3-1.3,2.5c0,0.8,0.2,1.4,0.6,1.8c0.4,0.4,0.9,0.7,1.6,0.9c0.7,0.2,1.6,0.4,2.8,0.6l1.1,0.2
			c1.8,0.3,3.2,0.7,4.2,1.1c1,0.4,1.7,1,2.2,1.8c0.5,0.8,0.7,1.9,0.7,3.3c0,2.4-0.7,4.1-2.1,5.2s-3.5,1.7-6.4,1.7
			C510.6,335.7,508.5,335.5,505.9,335.1z"/>
		<path class="st0" d="M529.4,335c-0.8-0.5-1.4-1.3-1.8-2.5c-0.4-1.2-0.6-2.8-0.6-4.9v-11.6H524v-2.9h3.1v-6.7h3.3v6.7h7v2.9h-7
			v10.5c0,1.6,0.1,2.9,0.2,3.7c0.1,0.8,0.4,1.4,0.9,1.8c0.5,0.4,1.2,0.6,2.1,0.6l3.9-0.3l0.2,2.7c-2.1,0.3-3.7,0.5-4.7,0.5
			C531.4,335.7,530.3,335.5,529.4,335z"/>
		<path class="st0" d="M544.2,334.5c-1.4-0.8-2.4-2-2.9-3.6c-0.6-1.6-0.9-3.8-0.9-6.5c0-2.8,0.3-5,0.9-6.7c0.6-1.7,1.6-2.9,3-3.7
			c1.4-0.8,3.2-1.2,5.5-1.2c2.3,0,4.2,0.4,5.5,1.2c1.4,0.8,2.4,2,3,3.7c0.6,1.7,0.9,3.9,0.9,6.7c0,2.7-0.3,4.9-0.9,6.5
			c-0.6,1.6-1.6,2.9-2.9,3.6c-1.4,0.8-3.2,1.2-5.6,1.2C547.5,335.7,545.6,335.3,544.2,334.5z M553.6,332c0.8-0.5,1.4-1.4,1.8-2.6
			c0.3-1.2,0.5-2.9,0.5-5c0-2.3-0.2-4-0.5-5.3c-0.4-1.2-1-2.1-1.8-2.6s-2.1-0.8-3.7-0.8s-2.8,0.3-3.7,0.8c-0.9,0.5-1.5,1.4-1.8,2.6
			c-0.4,1.2-0.5,3-0.5,5.3c0,2.1,0.2,3.8,0.5,5s0.9,2.1,1.8,2.6c0.9,0.5,2.1,0.8,3.8,0.8C551.5,332.8,552.7,332.6,553.6,332z"/>
		<path class="st0" d="M564.6,313.3h3.3v3c2.5-1.7,5.2-2.9,8.1-3.5v3.3c-1.1,0.2-2.4,0.6-3.7,1.1c-1.3,0.5-2.4,0.9-3.2,1.3l-1.1,0.6
			v16.1h-3.3V313.3z"/>
		<path class="st0" d="M580,334c-1.1-1.1-1.6-2.8-1.6-4.9c0-2.1,0.5-3.7,1.6-4.7c1.1-1,2.8-1.7,5.1-1.9l6.9-0.7v-1.9
			c0-2.8-1.2-4.2-3.6-4.2c-2.4,0-5.3,0.2-8.7,0.6l-0.1-2.5c3.1-0.6,6-1,8.6-1c2.5,0,4.3,0.6,5.4,1.7c1.1,1.1,1.7,2.9,1.7,5.4v11.3
			c0.1,1.1,0.9,1.7,2.6,1.9l-0.1,2.6c-2.3,0-4.1-0.6-5.2-1.8c-2.6,1.2-5.3,1.8-7.9,1.8C582.6,335.7,581.1,335.1,580,334z
			 M591.1,331.9l1-0.4v-7.3l-6.5,0.6c-1.3,0.1-2.3,0.5-2.9,1.1c-0.6,0.6-0.9,1.6-0.9,2.8c0,2.7,1.1,4,3.3,4
			C587.1,332.9,589.1,332.6,591.1,331.9z"/>
		<path class="st0" d="M601.9,313.3h3.3v1.5c1.3-0.7,2.5-1.2,3.6-1.5c1.1-0.3,2.3-0.4,3.5-0.4c1.9,0,3.3,0.4,4.4,1.1
			c1,0.7,1.8,1.8,2.2,3.4c0.4,1.5,0.6,3.7,0.6,6.4v11.6h-3.3v-11.5c0-2.1-0.1-3.7-0.4-4.8c-0.2-1.1-0.7-1.9-1.3-2.4
			c-0.6-0.5-1.6-0.7-2.8-0.7c-1,0-2,0.1-3.1,0.4c-1,0.3-1.9,0.5-2.5,0.9l-0.8,0.4v17.9h-3.3V313.3z"/>
		<path class="st0" d="M629,335c-0.8-0.5-1.4-1.3-1.8-2.5c-0.4-1.2-0.6-2.8-0.6-4.9v-11.6h-3.1v-2.9h3.1v-6.7h3.3v6.7h7v2.9h-7v10.5
			c0,1.6,0.1,2.9,0.2,3.7c0.1,0.8,0.4,1.4,0.9,1.8c0.5,0.4,1.2,0.6,2.1,0.6l3.9-0.3l0.2,2.7c-2.1,0.3-3.7,0.5-4.7,0.5
			C631,335.7,629.8,335.5,629,335z"/>
		<path class="st0" d="M642.1,333.1c-1.4-1.7-2.1-4.5-2.1-8.3c0-4.1,0.7-7.1,2.2-9.1c1.5-2,3.8-2.9,7-2.9c2.9,0,5.1,0.8,6.6,2.5
			c1.5,1.7,2.2,4.3,2.2,7.8l-0.2,2.5h-14.5c0,1.8,0.2,3.2,0.6,4.3c0.4,1,1.1,1.8,2,2.2c1,0.5,2.3,0.7,4,0.7c0.9,0,1.8,0,2.9-0.1
			c1.1,0,2.1-0.1,3-0.2l1.3-0.1l0.1,2.6c-3.3,0.5-6,0.7-8.1,0.7C645.8,335.7,643.5,334.8,642.1,333.1z M654.7,323
			c0-2.7-0.4-4.6-1.3-5.7c-0.9-1.1-2.2-1.7-4.2-1.7c-2,0-3.5,0.6-4.5,1.8c-1,1.2-1.5,3.1-1.5,5.6H654.7z"/>
	</g>
	<g>
		<path class="st0" d="M343.4,332.2v3h-16.8v-30.4h3.4v27.4H343.4z"/>
		<path class="st0" d="M347.2,304.5h3.3v3.8h-3.3V304.5z M347.2,313.3h3.3v22h-3.3V313.3z"/>
		<path class="st0" d="M357.6,333c-1.2-1.8-1.8-4.6-1.8-8.3c0-4.2,0.7-7.2,2.2-9.1s3.8-2.8,7.2-2.8c1.7,0,3.4,0.2,5.2,0.6v-9.7h3.3
			v31.6h-3.3v-1.5c-2.3,1.3-4.5,1.9-6.8,1.9C360.8,335.7,358.8,334.8,357.6,333z M367,332.4c1-0.2,1.8-0.5,2.6-0.9l0.9-0.4v-14.9
			c-1.9-0.4-3.6-0.5-5-0.5c-2.3,0-3.9,0.7-4.9,2c-0.9,1.3-1.4,3.6-1.4,6.7c0,2.8,0.4,5,1.1,6.3c0.7,1.4,2,2,3.9,2
			C365,332.7,366,332.6,367,332.4z"/>
		<path class="st0" d="M380,304.5h3.3v3.8H380V304.5z M380,313.3h3.3v22H380V313.3z"/>
		<path class="st0" d="M389.6,313.3h3.3v1.5c1.3-0.7,2.5-1.2,3.6-1.5c1.1-0.3,2.3-0.4,3.5-0.4c1.9,0,3.3,0.4,4.4,1.1
			c1,0.7,1.8,1.8,2.2,3.4c0.4,1.5,0.6,3.7,0.6,6.4v11.6h-3.3v-11.5c0-2.1-0.1-3.7-0.4-4.8c-0.2-1.1-0.7-1.9-1.3-2.4
			c-0.6-0.5-1.6-0.7-2.8-0.7c-1,0-2,0.1-3.1,0.4c-1,0.3-1.9,0.5-2.5,0.9l-0.8,0.4v17.9h-3.3V313.3z"/>
		<path class="st0" d="M414.3,344.1c-1.4-1-2-2.6-2-4.9c0-0.9,0.1-1.7,0.3-2.3c0.2-0.6,0.6-1.1,1-1.6c0.5-0.5,1.2-1.1,2.1-1.8
			c-0.4-0.3-0.7-0.7-0.9-1.2c-0.2-0.5-0.3-1.1-0.3-1.7c0-0.4,0.1-0.8,0.3-1.3c0.2-0.5,0.6-1.3,1.2-2.4c-2.3-1-3.5-3.2-3.5-6.6
			c0-2.6,0.7-4.5,2.1-5.7c1.4-1.2,3.5-1.9,6.2-1.9c1.3,0,2.8,0.2,4.5,0.6l6.5-0.2v2.8l-4.2-0.1c0.5,0.5,0.9,1.1,1.1,1.8
			c0.2,0.7,0.4,1.6,0.4,2.8c0,2.6-0.7,4.5-2,5.6c-1.3,1.1-3.5,1.7-6.4,1.7c-0.9,0-1.7-0.1-2.2-0.2c-0.2,0.6-0.4,1.1-0.6,1.5
			c-0.1,0.4-0.2,0.8-0.2,1.1c0,0.8,0.3,1.3,0.9,1.5s1.5,0.4,2.8,0.4h1.7c1.9,0,3.5,0.1,4.7,0.4c1.2,0.3,2.1,0.9,2.8,1.8
			c0.6,0.9,1,2.2,1,3.9c0,2.6-0.8,4.4-2.4,5.6c-1.6,1.2-4.2,1.8-7.8,1.8C418,345.6,415.7,345.1,414.3,344.1z M426.7,341.8
			c1-0.7,1.5-1.8,1.5-3.4c0-0.9-0.2-1.7-0.5-2.1c-0.3-0.5-0.9-0.8-1.6-1s-1.9-0.3-3.3-0.3l-4.8-0.2c-1,0.7-1.6,1.3-2,1.8
			c-0.3,0.5-0.5,1.2-0.5,2.1c0,1.5,0.4,2.6,1.3,3.2c0.9,0.6,2.5,0.9,4.7,0.9C424,342.8,425.7,342.5,426.7,341.8z M424.7,324
			c0.8-0.7,1.1-2,1.1-3.7c0-1.7-0.4-3-1.1-3.7c-0.8-0.7-2-1.1-3.8-1.1c-1.8,0-3.1,0.4-3.9,1.1s-1.2,2-1.2,3.7c0,1.7,0.4,3,1.2,3.7
			s2.1,1.1,3.9,1.1C422.7,325.1,423.9,324.8,424.7,324z"/>
		<path class="st0" d="M438.7,334.5c-1.4-0.8-2.4-2-2.9-3.6c-0.6-1.6-0.9-3.8-0.9-6.5c0-2.8,0.3-5,0.9-6.7c0.6-1.7,1.6-2.9,3-3.7
			c1.4-0.8,3.2-1.2,5.5-1.2c2.3,0,4.2,0.4,5.5,1.2c1.4,0.8,2.4,2,3,3.7c0.6,1.7,0.9,3.9,0.9,6.7c0,2.7-0.3,4.9-0.9,6.5
			c-0.6,1.6-1.6,2.9-2.9,3.6c-1.4,0.8-3.2,1.2-5.6,1.2C442,335.7,440.1,335.3,438.7,334.5z M438.2,304h3.2v4h-3.2V304z M448.1,332
			c0.8-0.5,1.4-1.4,1.8-2.6c0.3-1.2,0.5-2.9,0.5-5c0-2.3-0.2-4-0.5-5.3c-0.4-1.2-1-2.1-1.8-2.6s-2.1-0.8-3.7-0.8s-2.8,0.3-3.7,0.8
			c-0.9,0.5-1.5,1.4-1.8,2.6c-0.4,1.2-0.5,3-0.5,5.3c0,2.1,0.2,3.8,0.5,5s0.9,2.1,1.8,2.6c0.9,0.5,2.1,0.8,3.8,0.8
			C446,332.8,447.2,332.6,448.1,332z M447,304h3.2v4H447V304z"/>
		<path class="st0" d="M469.4,304.8h11.3c3.3,0,5.7,0.8,7.3,2.3s2.4,3.8,2.4,7c0,4.7-1.9,7.7-5.6,8.8l5.9,12.4h-3.7l-5.5-11.7h-8.6
			v11.7h-3.4V304.8z M480.7,320.6c4.1,0,6.2-2.1,6.2-6.4c0-4.3-2.1-6.4-6.2-6.4h-7.9v12.8H480.7z"/>
		<path class="st0" d="M495.9,304.5h3.3v3.8h-3.3V304.5z M495.9,313.3h3.3v22h-3.3V313.3z"/>
		<path class="st0" d="M505.9,335.1l-1.3-0.2l0.2-2.9c3.4,0.5,6,0.7,7.6,0.7c1.8,0,3.1-0.3,3.9-0.9s1.3-1.5,1.3-2.8
			c0-0.9-0.2-1.6-0.6-2.1c-0.4-0.5-1-0.8-1.6-1c-0.7-0.2-1.6-0.4-2.8-0.6l-1.1-0.2c-1.8-0.3-3.1-0.6-4.1-1.1c-1-0.4-1.7-1-2.2-1.7
			s-0.7-1.8-0.7-3.1c0-2.4,0.7-4.1,2.2-5.1c1.4-1,3.5-1.5,6.1-1.5c2.1,0,4.2,0.2,6.4,0.6l1.2,0.2l-0.1,2.8c-3.2-0.5-5.6-0.7-7.4-0.7
			c-1.7,0-3,0.3-3.8,0.8c-0.8,0.5-1.3,1.3-1.3,2.5c0,0.8,0.2,1.4,0.6,1.8c0.4,0.4,0.9,0.7,1.6,0.9c0.7,0.2,1.6,0.4,2.8,0.6l1.1,0.2
			c1.8,0.3,3.2,0.7,4.2,1.1c1,0.4,1.7,1,2.2,1.8c0.5,0.8,0.7,1.9,0.7,3.3c0,2.4-0.7,4.1-2.1,5.2s-3.5,1.7-6.4,1.7
			C510.6,335.7,508.5,335.5,505.9,335.1z"/>
		<path class="st0" d="M529.4,335c-0.8-0.5-1.4-1.3-1.8-2.5c-0.4-1.2-0.6-2.8-0.6-4.9v-11.6H524v-2.9h3.1v-6.7h3.3v6.7h7v2.9h-7
			v10.5c0,1.6,0.1,2.9,0.2,3.7c0.1,0.8,0.4,1.4,0.9,1.8c0.5,0.4,1.2,0.6,2.1,0.6l3.9-0.3l0.2,2.7c-2.1,0.3-3.7,0.5-4.7,0.5
			C531.4,335.7,530.3,335.5,529.4,335z"/>
		<path class="st0" d="M544.2,334.5c-1.4-0.8-2.4-2-2.9-3.6c-0.6-1.6-0.9-3.8-0.9-6.5c0-2.8,0.3-5,0.9-6.7c0.6-1.7,1.6-2.9,3-3.7
			c1.4-0.8,3.2-1.2,5.5-1.2c2.3,0,4.2,0.4,5.5,1.2c1.4,0.8,2.4,2,3,3.7c0.6,1.7,0.9,3.9,0.9,6.7c0,2.7-0.3,4.9-0.9,6.5
			c-0.6,1.6-1.6,2.9-2.9,3.6c-1.4,0.8-3.2,1.2-5.6,1.2C547.5,335.7,545.6,335.3,544.2,334.5z M553.6,332c0.8-0.5,1.4-1.4,1.8-2.6
			c0.3-1.2,0.5-2.9,0.5-5c0-2.3-0.2-4-0.5-5.3c-0.4-1.2-1-2.1-1.8-2.6s-2.1-0.8-3.7-0.8s-2.8,0.3-3.7,0.8c-0.9,0.5-1.5,1.4-1.8,2.6
			c-0.4,1.2-0.5,3-0.5,5.3c0,2.1,0.2,3.8,0.5,5s0.9,2.1,1.8,2.6c0.9,0.5,2.1,0.8,3.8,0.8C551.5,332.8,552.7,332.6,553.6,332z"/>
		<path class="st0" d="M564.6,313.3h3.3v3c2.5-1.7,5.2-2.9,8.1-3.5v3.3c-1.1,0.2-2.4,0.6-3.7,1.1c-1.3,0.5-2.4,0.9-3.2,1.3l-1.1,0.6
			v16.1h-3.3V313.3z"/>
		<path class="st0" d="M580,334c-1.1-1.1-1.6-2.8-1.6-4.9c0-2.1,0.5-3.7,1.6-4.7c1.1-1,2.8-1.7,5.1-1.9l6.9-0.7v-1.9
			c0-2.8-1.2-4.2-3.6-4.2c-2.4,0-5.3,0.2-8.7,0.6l-0.1-2.5c3.1-0.6,6-1,8.6-1c2.5,0,4.3,0.6,5.4,1.7c1.1,1.1,1.7,2.9,1.7,5.4v11.3
			c0.1,1.1,0.9,1.7,2.6,1.9l-0.1,2.6c-2.3,0-4.1-0.6-5.2-1.8c-2.6,1.2-5.3,1.8-7.9,1.8C582.6,335.7,581.1,335.1,580,334z
			 M591.1,331.9l1-0.4v-7.3l-6.5,0.6c-1.3,0.1-2.3,0.5-2.9,1.1c-0.6,0.6-0.9,1.6-0.9,2.8c0,2.7,1.1,4,3.3,4
			C587.1,332.9,589.1,332.6,591.1,331.9z"/>
		<path class="st0" d="M601.9,313.3h3.3v1.5c1.3-0.7,2.5-1.2,3.6-1.5c1.1-0.3,2.3-0.4,3.5-0.4c1.9,0,3.3,0.4,4.4,1.1
			c1,0.7,1.8,1.8,2.2,3.4c0.4,1.5,0.6,3.7,0.6,6.4v11.6h-3.3v-11.5c0-2.1-0.1-3.7-0.4-4.8c-0.2-1.1-0.7-1.9-1.3-2.4
			c-0.6-0.5-1.6-0.7-2.8-0.7c-1,0-2,0.1-3.1,0.4c-1,0.3-1.9,0.5-2.5,0.9l-0.8,0.4v17.9h-3.3V313.3z"/>
		<path class="st0" d="M629,335c-0.8-0.5-1.4-1.3-1.8-2.5c-0.4-1.2-0.6-2.8-0.6-4.9v-11.6h-3.1v-2.9h3.1v-6.7h3.3v6.7h7v2.9h-7v10.5
			c0,1.6,0.1,2.9,0.2,3.7c0.1,0.8,0.4,1.4,0.9,1.8c0.5,0.4,1.2,0.6,2.1,0.6l3.9-0.3l0.2,2.7c-2.1,0.3-3.7,0.5-4.7,0.5
			C631,335.7,629.8,335.5,629,335z"/>
		<path class="st0" d="M642.1,333.1c-1.4-1.7-2.1-4.5-2.1-8.3c0-4.1,0.7-7.1,2.2-9.1c1.5-2,3.8-2.9,7-2.9c2.9,0,5.1,0.8,6.6,2.5
			c1.5,1.7,2.2,4.3,2.2,7.8l-0.2,2.5h-14.5c0,1.8,0.2,3.2,0.6,4.3c0.4,1,1.1,1.8,2,2.2c1,0.5,2.3,0.7,4,0.7c0.9,0,1.8,0,2.9-0.1
			c1.1,0,2.1-0.1,3-0.2l1.3-0.1l0.1,2.6c-3.3,0.5-6,0.7-8.1,0.7C645.8,335.7,643.5,334.8,642.1,333.1z M654.7,323
			c0-2.7-0.4-4.6-1.3-5.7c-0.9-1.1-2.2-1.7-4.2-1.7c-2,0-3.5,0.6-4.5,1.8c-1,1.2-1.5,3.1-1.5,5.6H654.7z"/>
	</g>
</g>
</svg>
